<svg width="76" height="20" viewBox="0 0 76 20" fill="none" xmlns="http://www.w3.org/2000/svg">
<path fill-rule="evenodd" clip-rule="evenodd" d="M60.0537 0.5L72.1147 12.5609V1.22464L72.4776 0.861705H74.8589L75.2219 1.22464V19.4975H74.6515L62.798 7.64398V19.1358L62.435 19.4975H60.0537L59.692 19.1358V0.861705L60.0537 0.5Z" fill="black"/>
<path fill-rule="evenodd" clip-rule="evenodd" d="M3.79941 0.5L8.51022 11.8635L13.221 0.5H16.585L8.87193 19.1371L8.51022 19.5L8.14727 19.1371L0.434204 0.5H3.79941Z" fill="black"/>
<path fill-rule="evenodd" clip-rule="evenodd" d="M31.6435 0.5C33.4557 0.5 35.1741 1.44685 36.121 2.82948L34.31 4.64171H33.7397C33.3644 3.83929 32.5385 3.34796 31.6435 3.34796C30.5781 3.34796 29.5794 4.22445 29.5202 5.34043C29.477 6.17988 29.8621 6.70454 30.5572 7.15265C31.3053 7.63534 31.6114 7.83656 32.6274 8.39455C33.7347 9.00315 36.5358 10.1969 36.5358 13.3387C36.5358 16.436 33.9471 19.3173 30.6078 19.3173C30.1794 19.3173 29.4029 19.2692 28.8227 19.1358C27.187 18.7396 26.1945 18.1211 25.1217 16.8582L27.4512 14.4769L28.2536 15.1497C28.6153 15.4336 29.4103 16.0052 30.1671 16.1076C31.7052 16.3163 32.7373 15.299 32.9372 14.2954C33.0965 13.5029 32.8953 12.3202 31.6176 11.7079C31.6176 11.7079 29.314 10.4278 28.3042 9.84384C27.2759 9.24881 26.1821 7.62423 26.1821 5.67744C26.1821 4.22815 26.8463 2.82454 27.9166 1.84683C28.7437 1.08885 29.8782 0.5 31.6435 0.5Z" fill="black"/>
<path fill-rule="evenodd" clip-rule="evenodd" d="M22.0558 0.5V18.7741L21.6929 19.1358H18.9498V0.862939L19.3115 0.5H22.0558Z" fill="black"/>
<path fill-rule="evenodd" clip-rule="evenodd" d="M48.0216 0.5C50.4929 0.5 52.863 1.48171 54.6104 3.22915C56.3579 4.9766 57.3396 7.34665 57.3396 9.81791C57.3396 12.2892 56.3579 14.6592 54.6104 16.4067C52.863 18.1541 50.4929 19.1358 48.0216 19.1358C45.5504 19.1358 43.1803 18.1541 41.4329 16.4067C39.6854 14.6592 38.7037 12.2892 38.7037 9.81791C38.7037 7.34665 39.6854 4.9766 41.4329 3.22915C43.1803 1.48171 45.5504 0.5 48.0216 0.5ZM48.0204 3.60721C47.2046 3.60729 46.3967 3.76806 45.643 4.08034C44.8893 4.39263 44.2045 4.85031 43.6277 5.42726C42.4627 6.59245 41.8083 8.17271 41.8085 9.82038C41.8086 11.4681 42.4633 13.0482 43.6285 14.2131C44.7937 15.3781 46.374 16.0325 48.0216 16.0323C49.6693 16.0323 51.2495 15.3778 52.4146 14.2127C53.5797 13.0476 54.2342 11.4674 54.2342 9.81976C54.2342 8.17209 53.5797 6.5919 52.4146 5.42682C51.2495 4.26174 49.6693 3.60721 48.0216 3.60721H48.0204Z" fill="black"/>
</svg>
