<svg width="28" height="13" viewBox="0 0 28 13" fill="none" xmlns="http://www.w3.org/2000/svg">
<path d="M1.11111 5.74396L0.361115 5.74396L0.361114 7.24396L1.11111 7.24396L1.11111 5.74396ZM27.1487 7.02429C27.4416 6.7314 27.4416 6.25652 27.1487 5.96363L22.3757 1.19066C22.0828 0.897765 21.608 0.897765 21.3151 1.19066C21.0222 1.48355 21.0222 1.95843 21.3151 2.25132L25.5577 6.49396L21.3151 10.7366C21.0222 11.0295 21.0222 11.5044 21.3151 11.7973C21.608 12.0902 22.0828 12.0902 22.3757 11.7973L27.1487 7.02429ZM1.11111 7.24396L26.6184 7.24396L26.6184 5.74396L1.11111 5.74396L1.11111 7.24396Z" fill="white"/>
</svg>
